<?xml version="1.0" encoding="UTF-8" standalone="no"?>
<!-- Created with Inkscape (http://www.inkscape.org/) -->

<svg
   xmlns:dc="http://purl.org/dc/elements/1.1/"
   xmlns:cc="http://creativecommons.org/ns#"
   xmlns:rdf="http://www.w3.org/1999/02/22-rdf-syntax-ns#"
   xmlns:svg="http://www.w3.org/2000/svg"
   xmlns="http://www.w3.org/2000/svg"
   xmlns:sodipodi="http://sodipodi.sourceforge.net/DTD/sodipodi-0.dtd"
   xmlns:inkscape="http://www.inkscape.org/namespaces/inkscape"
   width="210.57451mm"
   height="100.54166mm"
   viewBox="0 0 210.57451 100.54166"
   version="1.1"
   id="svg8"
   inkscape:version="0.92.3 (2405546, 2018-03-11)"
   sodipodi:docname="capibaribe.svg"
   inkscape:export-filename="/home/jrmmendes/Work/LISO/Projetos/logo-capibaribe/png/v1.png"
   inkscape:export-xdpi="603.10999"
   inkscape:export-ydpi="603.10999">
  <defs
     id="defs2" />
  <sodipodi:namedview
     id="base"
     pagecolor="#ffffff"
     bordercolor="#666666"
     borderopacity="1.0"
     inkscape:pageopacity="0.0"
     inkscape:pageshadow="2"
     inkscape:zoom="0.35355339"
     inkscape:cx="282.11742"
     inkscape:cy="379.03624"
     inkscape:document-units="mm"
     inkscape:current-layer="layer1"
     showgrid="false"
     inkscape:window-width="1360"
     inkscape:window-height="715"
     inkscape:window-x="0"
     inkscape:window-y="30"
     inkscape:window-maximized="1"
     showguides="false">
    <inkscape:grid
       type="xygrid"
       id="grid815"
       originx="133.20714"
       originy="-172.5661" />
  </sodipodi:namedview>
  <metadata
     id="metadata5">
    <rdf:RDF>
      <cc:Work
         rdf:about="">
        <dc:format>image/svg+xml</dc:format>
        <dc:type
           rdf:resource="http://purl.org/dc/dcmitype/StillImage" />
        <dc:title />
      </cc:Work>
    </rdf:RDF>
  </metadata>
  <g
     inkscape:label="Camada 1"
     inkscape:groupmode="layer"
     id="layer1"
     transform="translate(133.20714,-23.892254)">
    <rect
       style="opacity:1;fill:#eeeeec;fill-opacity:1;stroke:none;stroke-width:0.64844954;stroke-linecap:butt;stroke-linejoin:miter;stroke-miterlimit:4;stroke-dasharray:none;stroke-opacity:1"
       id="rect817"
       width="210.57451"
       height="100.54166"
       x="-133.20714"
       y="23.892254" />
    <path
       inkscape:connector-curvature="0"
       style="opacity:1;fill:none;fill-opacity:1;stroke:#cc0000;stroke-width:0.30000001;stroke-linecap:butt;stroke-linejoin:miter;stroke-miterlimit:4;stroke-dasharray:none;stroke-opacity:1"
       d="m -182.91223,30.941135 c -23.63156,0 -42.65632,19.024763 -42.65632,42.656309 0,23.631546 19.02476,42.656306 42.65632,42.656306 1.79273,0 3.55826,-0.11132 5.29167,-0.32401 -21.11641,-2.59064 -37.36466,-20.493334 -37.36466,-42.332296 0,-21.838962 16.24825,-39.741651 37.36466,-42.332298 -1.73341,-0.21268 -3.49894,-0.324011 -5.29167,-0.324011 z"
       id="rect854" />
    <path
       id="path859"
       d="m -167.03722,34.308731 c -23.63156,0 -42.65633,17.522812 -42.65633,39.288714 0,21.765901 19.02477,39.288705 42.65633,39.288705 1.79273,0 3.55826,-0.10253 5.29167,-0.29843 -21.11641,-2.38611 -37.36466,-18.875438 -37.36466,-38.990275 0,-20.114837 16.24825,-36.60416 37.36466,-38.990283 -1.73341,-0.195889 -3.49894,-0.298431 -5.29167,-0.298431 z"
       style="opacity:1;fill:none;fill-opacity:1;stroke:#a40000;stroke-width:0.30000001;stroke-linecap:butt;stroke-linejoin:miter;stroke-miterlimit:4;stroke-dasharray:none;stroke-opacity:1"
       inkscape:connector-curvature="0" />
    <path
       inkscape:connector-curvature="0"
       style="opacity:1;fill:none;fill-opacity:1;stroke:#a40000;stroke-width:0.30000001;stroke-linecap:butt;stroke-linejoin:miter;stroke-miterlimit:4;stroke-dasharray:none;stroke-opacity:1"
       d="m -161.11927,41.593364 c -17.73023,0 -32.0041,14.273857 -32.0041,32.00408 0,17.730223 14.27387,32.004076 32.0041,32.004076 1.34504,0 2.66967,-0.0835 3.97022,-0.2431 -15.84317,-1.9437 -28.03387,-15.375689 -28.03387,-31.760976 0,-16.385287 12.1907,-29.817277 28.03387,-31.760981 -1.30055,-0.159569 -2.62518,-0.243099 -3.97022,-0.243099 z"
       id="path861" />
    <path
       id="path902"
       d="m -154.36464,138.33003 -42.65632,42.65631 42.65632,42.65631 5.29167,-0.32401 -37.36466,-42.3323 37.36466,-42.3323 z"
       style="opacity:1;fill:none;fill-opacity:1;stroke:#cc0000;stroke-width:0.30000001;stroke-linecap:butt;stroke-linejoin:miter;stroke-miterlimit:4;stroke-dasharray:none;stroke-opacity:1"
       inkscape:connector-curvature="0"
       sodipodi:nodetypes="ccccccc" />
    <g
       id="g927"
       transform="translate(-5.9594608,-5.0470184)">
      <path
         style="fill:none;stroke:#000000;stroke-width:0.30000001;stroke-linecap:butt;stroke-linejoin:miter;stroke-miterlimit:4;stroke-dasharray:none;stroke-opacity:1"
         d="m 12.414803,93.003013 7.951268,4.7625 7.951269,-4.7625 h 2.645835"
         id="path886"
         inkscape:connector-curvature="0"
         sodipodi:nodetypes="cccc" />
      <text
         id="text870"
         y="83.830017"
         x="-69.888786"
         style="font-style:normal;font-weight:normal;font-size:23.25846863px;line-height:1.25;font-family:sans-serif;letter-spacing:0px;word-spacing:0px;fill:#303030;fill-opacity:1;stroke:none;stroke-width:0.58146167"
         xml:space="preserve"><tspan
           style="font-style:normal;font-variant:normal;font-weight:normal;font-stretch:normal;font-family:'URW Gothic L';-inkscape-font-specification:'URW Gothic L';fill:#303030;fill-opacity:1;stroke-width:0.58146167"
           y="83.830017"
           x="-69.888786"
           id="tspan868"
           sodipodi:role="line">Capibarib<tspan
   id="tspan890"
   style="fill:#a40000">e</tspan></tspan></text>
      <path
         sodipodi:nodetypes="ccccccc"
         inkscape:connector-curvature="0"
         id="path875"
         d="M -65.481032,93.003013 H 7.1093694 15.060638 l 7.951268,4.7625 7.951269,-4.7625 h 7.951268 17.586335"
         style="fill:none;stroke:#a40000;stroke-width:0.30000001;stroke-linecap:butt;stroke-linejoin:miter;stroke-miterlimit:4;stroke-dasharray:none;stroke-opacity:1" />
      <path
         sodipodi:nodetypes="ccccccc"
         id="path904"
         d="M -80.934186,59.307898 -102.54228,79.2101 -80.934186,99.112303 -78.253622,98.961129 -97.18117,79.2101 -78.253622,59.459072 Z"
         style="opacity:1;fill:none;fill-opacity:1;stroke:#a40000;stroke-width:0.30000001;stroke-linecap:butt;stroke-linejoin:miter;stroke-miterlimit:4;stroke-dasharray:none;stroke-opacity:1"
         inkscape:connector-curvature="0" />
      <path
         sodipodi:nodetypes="ccccccc"
         inkscape:connector-curvature="0"
         style="opacity:1;fill:none;fill-opacity:1;stroke:#a40000;stroke-width:0.30000001;stroke-linecap:butt;stroke-linejoin:miter;stroke-miterlimit:4;stroke-dasharray:none;stroke-opacity:1"
         d="M -74.761373,62.998021 -90.97346,79.2101 -74.761373,95.42218 -72.750207,95.299034 -86.951125,79.2101 -72.750207,63.121167 Z"
         id="path906" />
    </g>
  </g>
</svg>
