<?xml version="1.0" encoding="UTF-8" standalone="no"?>
<!-- Created with Inkscape (http://www.inkscape.org/) -->

<svg
   xmlns:dc="http://purl.org/dc/elements/1.1/"
   xmlns:cc="http://creativecommons.org/ns#"
   xmlns:rdf="http://www.w3.org/1999/02/22-rdf-syntax-ns#"
   xmlns:svg="http://www.w3.org/2000/svg"
   xmlns="http://www.w3.org/2000/svg"
   xmlns:sodipodi="http://sodipodi.sourceforge.net/DTD/sodipodi-0.dtd"
   xmlns:inkscape="http://www.inkscape.org/namespaces/inkscape"
   width="50.941601mm"
   height="60.879215mm"
   viewBox="0 0 50.941601 60.879217"
   version="1.1"
   id="svg1474"
   inkscape:version="0.92.3 (2405546, 2018-03-11)"
   sodipodi:docname="default_vertical.svg">
  <defs
     id="defs1468" />
  <sodipodi:namedview
     id="base"
     pagecolor="#ffffff"
     bordercolor="#666666"
     borderopacity="1.0"
     inkscape:pageopacity="0.0"
     inkscape:pageshadow="2"
     inkscape:zoom="0.98994949"
     inkscape:cx="65.99908"
     inkscape:cy="165.56364"
     inkscape:document-units="mm"
     inkscape:current-layer="layer1"
     showgrid="false"
     inkscape:window-width="1360"
     inkscape:window-height="715"
     inkscape:window-x="0"
     inkscape:window-y="30"
     inkscape:window-maximized="1" />
  <metadata
     id="metadata1471">
    <rdf:RDF>
      <cc:Work
         rdf:about="">
        <dc:format>image/svg+xml</dc:format>
        <dc:type
           rdf:resource="http://purl.org/dc/dcmitype/StillImage" />
        <dc:title></dc:title>
      </cc:Work>
    </rdf:RDF>
  </metadata>
  <g
     inkscape:label="Camada 1"
     inkscape:groupmode="layer"
     id="layer1"
     transform="translate(-268.20379,-72.104202)">
    <g
       id="g4230">
      <path
         inkscape:connector-curvature="0"
         id="path1302"
         d="m 278.87362,72.104333 c -3.59988,0 -6.49768,2.897795 -6.49768,6.497674 v 29.602523 c 0,3.59988 2.8978,6.49767 6.49768,6.49767 h 29.60171 c 3.59988,0 6.49849,-2.89779 6.49849,-6.49767 V 78.602007 c 0,-3.599879 -2.89861,-6.497674 -6.49849,-6.497674 z m 22.79244,11.334633 -7.32722,18.937554 16.74502,0.69496 -34.03164,0.38255 7.08904,-5.764384 z"
         style="opacity:1;fill:#e00000;fill-opacity:1;stroke:none;stroke-width:0.36156756;stroke-linecap:butt;stroke-linejoin:miter;stroke-miterlimit:4;stroke-dasharray:none;stroke-opacity:1" />
      <path
         style="fill:#e00000;fill-opacity:1;stroke:none;stroke-width:0.36099905px;stroke-linecap:butt;stroke-linejoin:miter;stroke-opacity:1"
         d="m 278.87335,72.104203 c -3.59988,0 -6.49798,2.898101 -6.49798,6.497983 v 28.667654 l 40.89301,-33.053225 c -1.1864,-1.296532 -2.88906,-2.112412 -4.79311,-2.112412 z"
         id="path1304"
         inkscape:connector-curvature="0"
         sodipodi:nodetypes="ssccss" />
      <g
         transform="translate(267.67853,39.48085)"
         id="g1384"
         style="fill:#303030;fill-opacity:1;stroke:none">
        <path
           style="color:#000000;font-style:normal;font-variant:normal;font-weight:normal;font-stretch:normal;font-size:medium;line-height:normal;font-family:sans-serif;font-variant-ligatures:normal;font-variant-position:normal;font-variant-caps:normal;font-variant-numeric:normal;font-variant-alternates:normal;font-feature-settings:normal;text-indent:0;text-align:start;text-decoration:none;text-decoration-line:none;text-decoration-style:solid;text-decoration-color:#000000;letter-spacing:normal;word-spacing:normal;text-transform:none;writing-mode:lr-tb;direction:ltr;text-orientation:mixed;dominant-baseline:auto;baseline-shift:baseline;text-anchor:start;white-space:normal;shape-padding:0;clip-rule:nonzero;display:inline;overflow:visible;visibility:visible;opacity:1;isolation:auto;mix-blend-mode:normal;color-interpolation:sRGB;color-interpolation-filters:linearRGB;solid-color:#000000;solid-opacity:1;vector-effect:none;fill:#303030;fill-opacity:1;fill-rule:nonzero;stroke:none;stroke-width:0.40000001;stroke-linecap:butt;stroke-linejoin:miter;stroke-miterlimit:4;stroke-dasharray:none;stroke-dashoffset:0;stroke-opacity:1;color-rendering:auto;image-rendering:auto;shape-rendering:auto;text-rendering:auto;enable-background:accumulate"
           d="M 0.52526063,87.755859 V 88.15625 H 50.541016 v -0.400391 z"
           id="path1382"
           inkscape:connector-curvature="0"
           sodipodi:nodetypes="ccccc" />
      </g>
      <path
         id="rect1386"
         d="m 317.29431,126.5113 h 1.8511 v 1.85109 h -1.8511 z"
         style="opacity:1;fill:#303030;fill-opacity:1;stroke:none;stroke-width:0.40000001;stroke-linecap:butt;stroke-linejoin:miter;stroke-miterlimit:4;stroke-dasharray:none;stroke-opacity:1" />
      <g
         id="text1394"
         style="font-style:normal;font-weight:normal;font-size:7.09061241px;line-height:1.25;font-family:sans-serif;letter-spacing:0px;word-spacing:0px;fill:#303030;fill-opacity:1;stroke:none;stroke-width:0.17726529"
         aria-label="capibarib e">
        <path
           id="path4184"
           style="font-style:normal;font-variant:normal;font-weight:normal;font-stretch:normal;font-family:ASTERA;-inkscape-font-specification:ASTERA;word-spacing:0.00515506px;fill:#303030;fill-opacity:1;stroke-width:0.17726529"
           d="m 269.45382,120.4093 h 3.92961 q 0.0173,0.003 0.0173,0.0173 v 0.84824 q 0,0.0173 -0.0173,0.0173 h -3.29256 q -0.44663,0 -0.59551,0.48818 -0.0104,0.0866 -0.0104,0.13502 v 0.72014 q 0,0.40854 0.40854,0.57473 0.0831,0.0346 0.19735,0.0346 h 3.29256 q 0.0173,0 0.0173,0.0139 v 0.84824 q 0,0.0173 -0.0173,0.0173 h -3.90538 q -0.60588,0 -1.0075,-0.49163 -0.17311,-0.24928 -0.17311,-0.51241 v -1.7311 q 0,-0.45355 0.51587,-0.79631 0.33583,-0.1835 0.64051,-0.1835 z" />
        <path
           id="path4186"
           style="font-style:normal;font-variant:normal;font-weight:normal;font-stretch:normal;font-family:ASTERA;-inkscape-font-specification:ASTERA;word-spacing:0.00515506px;fill:#303030;fill-opacity:1;stroke-width:0.17726529"
           d="m 275.93854,120.4093 h 1.18062 q 0.0346,0.0312 0.73052,1.21524 1.40566,2.38546 1.46452,2.49279 v 0.007 h -1.36411 q -0.0381,-0.0346 -0.45009,-0.74783 h -1.93538 q -0.39123,0.68205 -0.4397,0.74783 h -1.37103 v -0.0173 q 2.10502,-3.57646 2.18465,-3.69764 z m 0.59204,1.33988 -0.44316,0.74783 h 0.88979 q -0.42239,-0.7236 -0.44663,-0.74783 z" />
        <path
           id="path4188"
           style="font-style:normal;font-variant:normal;font-weight:normal;font-stretch:normal;font-family:ASTERA;-inkscape-font-specification:ASTERA;word-spacing:0.00515506px;fill:#303030;fill-opacity:1;stroke-width:0.17726529"
           d="m 279.68466,120.4093 h 3.90537 q 0.60935,0 1.01443,0.49856 0.16619,0.26313 0.16619,0.49856 v 0.68898 q 0,0.50202 -0.54011,0.84824 -0.30813,0.15926 -0.60935,0.15926 h -2.7663 v 1.00404 q 0,0.0173 -0.0173,0.0173 h -1.15291 q -0.0173,0 -0.0173,-0.0173 v -3.68033 q 0.003,-0.0173 0.0173,-0.0173 z m 1.17023,0.88286 v 0.92788 h 2.2539 q 0.36007,0 0.45701,-0.31506 0.0138,-0.0727 0.0138,-0.14196 0,-0.33583 -0.28044,-0.44662 -0.0866,-0.0242 -0.17657,-0.0242 z" />
        <path
           id="path4190"
           style="font-style:normal;font-variant:normal;font-weight:normal;font-stretch:normal;font-family:ASTERA;-inkscape-font-specification:ASTERA;word-spacing:0.00515506px;fill:#303030;fill-opacity:1;stroke-width:0.17726529"
           d="m 285.14111,120.4093 h 1.15291 q 0.0173,0.003 0.0173,0.0173 v 3.68033 q 0,0.0173 -0.0173,0.0173 h -1.15291 q -0.0173,0 -0.0173,-0.0173 v -3.68033 q 0.003,-0.0173 0.0173,-0.0173 z" />
        <path
           id="path4192"
           style="font-style:normal;font-variant:normal;font-weight:normal;font-stretch:normal;font-family:ASTERA;-inkscape-font-specification:ASTERA;word-spacing:0.00515506px;fill:#303030;fill-opacity:1;stroke-width:0.17726529"
           d="m 286.67833,120.4093 h 3.90537 q 0.66475,0 1.0629,0.57473 0.11772,0.23197 0.11772,0.43277 v 0.0554 q 0,0.44316 -0.43278,0.78246 0.43278,0.36353 0.43278,0.7236 v 0.16619 q 0,0.44662 -0.50895,0.79631 -0.34276,0.16618 -0.49856,0.16618 0,0.0173 -0.0415,0.0173 h -4.03694 q -0.0173,0 -0.0173,-0.0173 v -3.68033 q 0.003,-0.0173 0.0173,-0.0173 z m 1.17023,0.88286 v 0.57127 h 2.4097 q 0.21811,0 0.30121,-0.19042 0.0139,-0.0831 0.0139,-0.10041 0,-0.20427 -0.24928,-0.28044 z m 0,1.37796 v 0.57473 h 2.4097 q 0.21811,0 0.30121,-0.19388 0.0139,-0.0831 0.0139,-0.0969 0,-0.17311 -0.18004,-0.25967 -0.0554,-0.0242 -0.13502,-0.0242 z" />
        <path
           id="path4194"
           style="font-style:normal;font-variant:normal;font-weight:normal;font-stretch:normal;font-family:ASTERA;-inkscape-font-specification:ASTERA;word-spacing:0.00515506px;fill:#303030;fill-opacity:1;stroke-width:0.17726529"
           d="m 294.30212,120.4093 h 1.18061 q 0.0346,0.0312 0.73053,1.21524 1.40566,2.38546 1.46452,2.49279 v 0.007 h -1.36411 q -0.0381,-0.0346 -0.45009,-0.74783 h -1.93538 q -0.39123,0.68205 -0.4397,0.74783 h -1.37104 v -0.0173 q 2.10503,-3.57646 2.18466,-3.69764 z m 0.59204,1.33988 -0.44316,0.74783 h 0.88978 q -0.42239,-0.7236 -0.44662,-0.74783 z" />
        <path
           id="path4196"
           style="font-style:normal;font-variant:normal;font-weight:normal;font-stretch:normal;font-family:ASTERA;-inkscape-font-specification:ASTERA;word-spacing:0.00515506px;fill:#303030;fill-opacity:1;stroke-width:0.17726529"
           d="m 298.04823,120.4093 h 3.91231 q 0.53318,0 0.93133,0.40854 0.24236,0.28044 0.24236,0.60589 v 0.67167 q 0,0.52279 -0.57473,0.86555 l -0.14888,0.0658 0.72361,1.0906 -0.0173,0.007 h -1.40565 q -0.0519,-0.0589 -0.68898,-1.02135 h -1.80382 v 1.00404 q 0,0.0173 -0.0173,0.0173 h -1.15292 q -0.0173,0 -0.0173,-0.0173 v -3.68033 q 0.003,-0.0173 0.0173,-0.0173 z m 1.17023,0.88286 v 0.92788 h 2.2539 q 0.36007,0 0.45702,-0.31506 0.0138,-0.0727 0.0138,-0.14196 0,-0.33583 -0.28043,-0.44662 -0.0866,-0.0242 -0.17658,-0.0242 z" />
        <path
           id="path4198"
           style="font-style:normal;font-variant:normal;font-weight:normal;font-stretch:normal;font-family:ASTERA;-inkscape-font-specification:ASTERA;word-spacing:0.00515506px;fill:#303030;fill-opacity:1;stroke-width:0.17726529"
           d="m 303.50468,120.4093 h 1.15292 q 0.0173,0.003 0.0173,0.0173 v 3.68033 q 0,0.0173 -0.0173,0.0173 h -1.15292 q -0.0173,0 -0.0173,-0.0173 v -3.68033 q 0.003,-0.0173 0.0173,-0.0173 z" />
        <path
           id="path4200"
           style="font-style:normal;font-variant:normal;font-weight:normal;font-stretch:normal;font-family:ASTERA;-inkscape-font-specification:ASTERA;word-spacing:0.00515506px;fill:#303030;fill-opacity:1;stroke-width:0.17726529"
           d="m 305.0419,120.4093 h 3.90538 q 0.66475,0 1.0629,0.57473 0.11772,0.23197 0.11772,0.43277 v 0.0554 q 0,0.44316 -0.43278,0.78246 0.43278,0.36353 0.43278,0.7236 v 0.16619 q 0,0.44662 -0.50895,0.79631 -0.34276,0.16618 -0.49856,0.16618 0,0.0173 -0.0415,0.0173 h -4.03694 q -0.0173,0 -0.0173,-0.0173 v -3.68033 q 0.003,-0.0173 0.0173,-0.0173 z m 1.17023,0.88286 v 0.57127 h 2.4097 q 0.21812,0 0.30121,-0.19042 0.0138,-0.0831 0.0138,-0.10041 0,-0.20427 -0.24928,-0.28044 z m 0,1.37796 v 0.57473 h 2.4097 q 0.21812,0 0.30121,-0.19388 0.0138,-0.0831 0.0138,-0.0969 0,-0.17311 -0.18003,-0.25967 -0.0554,-0.0242 -0.13503,-0.0242 z" />
        <path
           id="path4202"
           style="font-style:normal;font-variant:normal;font-weight:normal;font-stretch:normal;font-family:ASTERA;-inkscape-font-specification:ASTERA;word-spacing:0.00515506px;fill:#303030;fill-opacity:1;stroke-width:0.17726529"
           d="m 313.96572,120.4093 h 5.06868 q 0.0173,0.003 0.0173,0.0173 v 0.84824 q 0,0.0173 -0.0173,0.0173 h -3.89845 v 0.57127 h 2.88402 q 0.0173,0.003 0.0173,0.0173 v 0.77207 q 0,0.0173 -0.0173,0.0173 h -2.88402 v 0.57473 h 3.89845 q 0.0173,0 0.0173,0.0139 v 0.84824 q 0,0.0173 -0.0173,0.0173 h -5.06868 q -0.0173,0 -0.0173,-0.0173 v -3.68033 q 0.003,-0.0173 0.0173,-0.0173 z" />
      </g>
      <g
         id="text1398"
         style="font-style:normal;font-weight:normal;font-size:6.515944px;line-height:1.25;font-family:sans-serif;letter-spacing:0px;word-spacing:0px;fill:#303030;fill-opacity:1;stroke:none;stroke-width:0.1628986"
         aria-label="Racing">
        <path
           id="path4171"
           style="font-style:normal;font-variant:normal;font-weight:normal;font-stretch:normal;font-family:ASTERA;-inkscape-font-specification:ASTERA;fill:#303030;fill-opacity:1;stroke-width:0.1628986"
           d="m 280.40094,129.56955 h 3.59522 q 0.48997,0 0.85586,0.37543 0.22271,0.25771 0.22271,0.55678 v 0.61723 q 0,0.48042 -0.52815,0.7954 l -0.13681,0.0605 0.66496,1.0022 -0.0159,0.006 h -1.29173 q -0.0477,-0.0541 -0.63314,-0.93858 h -1.65762 v 0.92267 q 0,0.0159 -0.0159,0.0159 h -1.05948 q -0.0159,0 -0.0159,-0.0159 v -3.38206 q 0.003,-0.0159 0.0159,-0.0159 z m 1.07539,0.81131 v 0.85267 h 2.07123 q 0.33088,0 0.41997,-0.28953 0.0127,-0.0668 0.0127,-0.13044 0,-0.30862 -0.25771,-0.41043 -0.0796,-0.0223 -0.16227,-0.0223 z" />
        <path
           id="path4173"
           style="font-style:normal;font-variant:normal;font-weight:normal;font-stretch:normal;font-family:ASTERA;-inkscape-font-specification:ASTERA;fill:#303030;fill-opacity:1;stroke-width:0.1628986"
           d="m 287.40685,129.56955 h 1.08493 q 0.0318,0.0286 0.67132,1.11674 1.29174,2.19213 1.34583,2.29076 v 0.006 h -1.25356 q -0.035,-0.0318 -0.41361,-0.68723 h -1.77852 q -0.35952,0.62678 -0.40407,0.68723 h -1.25991 v -0.0159 q 1.93442,-3.28661 2.00759,-3.39796 z m 0.54406,1.23128 -0.40725,0.68723 h 0.81768 q -0.38816,-0.66496 -0.41043,-0.68723 z" />
        <path
           id="path4175"
           style="font-style:normal;font-variant:normal;font-weight:normal;font-stretch:normal;font-family:ASTERA;-inkscape-font-specification:ASTERA;fill:#303030;fill-opacity:1;stroke-width:0.1628986"
           d="m 291.89611,129.56955 h 3.61113 q 0.0159,0.003 0.0159,0.0159 v 0.7795 q 0,0.0159 -0.0159,0.0159 h -3.02571 q -0.41043,0 -0.54724,0.4486 -0.01,0.0795 -0.01,0.12409 v 0.66177 q 0,0.37543 0.37543,0.52815 0.0764,0.0318 0.18136,0.0318 h 3.02571 q 0.0159,0 0.0159,0.0127 v 0.7795 q 0,0.0159 -0.0159,0.0159 h -3.58886 q -0.55678,0 -0.92585,-0.45179 -0.15908,-0.22908 -0.15908,-0.47088 v -1.59081 q 0,-0.41679 0.47406,-0.73177 0.30862,-0.16862 0.5886,-0.16862 z" />
        <path
           id="path4177"
           style="font-style:normal;font-variant:normal;font-weight:normal;font-stretch:normal;font-family:ASTERA;-inkscape-font-specification:ASTERA;fill:#303030;fill-opacity:1;stroke-width:0.1628986"
           d="m 295.86358,129.56955 h 1.05948 q 0.0159,0.003 0.0159,0.0159 v 3.38206 q 0,0.0159 -0.0159,0.0159 h -1.05948 q -0.0159,0 -0.0159,-0.0159 v -3.38206 q 0.003,-0.0159 0.0159,-0.0159 z" />
        <path
           id="path4179"
           style="font-style:normal;font-variant:normal;font-weight:normal;font-stretch:normal;font-family:ASTERA;-inkscape-font-specification:ASTERA;fill:#303030;fill-opacity:1;stroke-width:0.1628986"
           d="m 297.27622,129.56955 h 1.06902 q 0.97675,0.89403 2.50393,2.30667 h 0.006 v -2.29077 q 0.003,-0.0159 0.0159,-0.0159 h 1.06266 q 0.0159,0.003 0.0159,0.0159 v 3.38206 q 0,0.0159 -0.0159,0.0159 h -1.08493 l -2.49757,-2.29713 v 2.28122 q 0,0.0159 -0.0159,0.0159 h -1.05947 q -0.0159,0 -0.0159,-0.0159 v -3.38206 q 0.003,-0.0159 0.0159,-0.0159 z" />
        <path
           id="path4181"
           style="font-style:normal;font-variant:normal;font-weight:normal;font-stretch:normal;font-family:ASTERA;-inkscape-font-specification:ASTERA;fill:#303030;fill-opacity:1;stroke-width:0.1628986"
           d="m 303.33719,129.56955 h 3.61113 q 0.0159,0.003 0.0159,0.0159 v 0.7795 q 0,0.0159 -0.0159,0.0159 h -3.02571 q -0.38816,0 -0.54088,0.41042 -0.0159,0.0859 -0.0159,0.12409 v 0.69995 q 0,0.37543 0.37543,0.52815 0.0763,0.0318 0.18135,0.0318 h 1.94715 v -0.62678 q 0.003,-0.0159 0.0159,-0.0159 h 1.06266 q 0.0159,0.003 0.0159,0.0159 v 1.419 q 0,0.0159 -0.0159,0.0159 h -3.58886 q -0.49633,0 -0.86221,-0.37543 -0.22272,-0.2609 -0.22272,-0.55679 v -1.55581 q 0,-0.5186 0.59496,-0.81767 0.2609,-0.10817 0.4677,-0.10817 z" />
      </g>
      <path
         id="rect1400"
         d="m 311.6663,121.85351 c 0.42032,0 0.75871,0.33838 0.75871,0.75871 0,0.42032 -0.33839,0.7587 -0.75871,0.7587 -0.42032,0 -0.75871,-0.33838 -0.75871,-0.7587 0,-0.42033 0.33839,-0.75871 0.75871,-0.75871 z"
         style="opacity:1;fill:#303030;fill-opacity:1;stroke:none;stroke-width:0.32789573;stroke-linecap:butt;stroke-linejoin:miter;stroke-miterlimit:4;stroke-dasharray:none;stroke-opacity:1" />
    </g>
  </g>
</svg>
