<?xml version="1.0" encoding="UTF-8" standalone="no"?>
<!-- Created with Inkscape (http://www.inkscape.org/) -->

<svg
   xmlns:dc="http://purl.org/dc/elements/1.1/"
   xmlns:cc="http://creativecommons.org/ns#"
   xmlns:rdf="http://www.w3.org/1999/02/22-rdf-syntax-ns#"
   xmlns:svg="http://www.w3.org/2000/svg"
   xmlns="http://www.w3.org/2000/svg"
   xmlns:sodipodi="http://sodipodi.sourceforge.net/DTD/sodipodi-0.dtd"
   xmlns:inkscape="http://www.inkscape.org/namespaces/inkscape"
   width="156.01967mm"
   height="26.987501mm"
   viewBox="0 0 156.01967 26.987501"
   version="1.1"
   id="svg2789"
   inkscape:version="0.92.3 (2405546, 2018-03-11)"
   sodipodi:docname="default.svg">
  <defs
     id="defs2783" />
  <sodipodi:namedview
     id="base"
     pagecolor="#ffffff"
     bordercolor="#666666"
     borderopacity="1.0"
     inkscape:pageopacity="0.0"
     inkscape:pageshadow="2"
     inkscape:zoom="0.7"
     inkscape:cx="198.33207"
     inkscape:cy="7.3737493"
     inkscape:document-units="mm"
     inkscape:current-layer="layer1"
     showgrid="false"
     inkscape:window-width="1360"
     inkscape:window-height="715"
     inkscape:window-x="0"
     inkscape:window-y="30"
     inkscape:window-maximized="1" />
  <metadata
     id="metadata2786">
    <rdf:RDF>
      <cc:Work
         rdf:about="">
        <dc:format>image/svg+xml</dc:format>
        <dc:type
           rdf:resource="http://purl.org/dc/dcmitype/StillImage" />
        <dc:title></dc:title>
      </cc:Work>
    </rdf:RDF>
  </metadata>
  <g
     inkscape:label="Camada 1"
     inkscape:groupmode="layer"
     id="layer1"
     transform="translate(37.94438,-176.16102)">
    <g
       aria-label="capibarib e"
       style="font-style:normal;font-weight:normal;font-size:17.27650642px;line-height:1.25;font-family:sans-serif;letter-spacing:0px;word-spacing:0px;fill:#303030;fill-opacity:1;stroke:none;stroke-width:0.4319126"
       id="text1342">
      <path
         d="m -2.7715951,179.4869 h 9.5746263 q 0.042179,0.008 0.042179,0.0422 v 2.06677 q 0,0.0422 -0.042179,0.0422 H -1.219409 q -1.0882174,0 -1.4509566,1.18945 -0.025307,0.2109 -0.025307,0.329 v 1.75464 q 0,0.99543 0.9954237,1.40034 0.2024591,0.0844 0.4808403,0.0844 h 8.0224402 q 0.042179,0 0.042179,0.0337 v 2.06677 q 0,0.0422 -0.042179,0.0422 h -9.5155758 q -1.4762639,0 -2.4548161,-1.19788 -0.4217897,-0.60738 -0.4217897,-1.2485 v -4.21789 q 0,-1.10509 1.2569334,-1.94024 0.818272,-0.44709 1.5606219,-0.44709 z"
         style="font-style:normal;font-variant:normal;font-weight:normal;font-stretch:normal;font-family:ASTERA;-inkscape-font-specification:ASTERA;word-spacing:0.01256048px;fill:#303030;fill-opacity:1;stroke-width:0.4319126"
         id="path3399" />
      <path
         d="m 13.028647,179.4869 h 2.876606 q 0.08436,0.0759 1.779952,2.96096 3.424933,5.81226 3.568341,6.07377 v 0.0169 h -3.323703 q -0.09279,-0.0844 -1.096653,-1.82213 h -4.715609 q -0.953245,1.66185 -1.071346,1.82213 H 7.7056609 v -0.0422 q 5.1289631,-8.71417 5.3229861,-9.00942 z m 1.442521,3.26465 -1.079782,1.82213 h 2.167999 q -1.029167,-1.76308 -1.088217,-1.82213 z"
         style="font-style:normal;font-variant:normal;font-weight:normal;font-stretch:normal;font-family:ASTERA;-inkscape-font-specification:ASTERA;word-spacing:0.01256048px;fill:#303030;fill-opacity:1;stroke-width:0.4319126"
         id="path3401" />
      <path
         d="m 22.156176,179.4869 h 9.515576 q 1.4847,0 2.471688,1.21475 0.404918,0.64112 0.404918,1.21475 v 1.67873 q 0,1.22319 -1.315984,2.06677 -0.750785,0.38804 -1.4847,0.38804 h -6.740199 v 2.44638 q 0,0.0422 -0.04218,0.0422 h -2.80912 q -0.04218,0 -0.04218,-0.0422 v -8.96725 q 0.0084,-0.0422 0.04218,-0.0422 z m 2.851299,2.15112 v 2.2608 h 5.491702 q 0.877323,0 1.113525,-0.76766 0.03374,-0.17715 0.03374,-0.34587 0,-0.81827 -0.683299,-1.08822 -0.210895,-0.059 -0.430226,-0.059 z"
         style="font-style:normal;font-variant:normal;font-weight:normal;font-stretch:normal;font-family:ASTERA;-inkscape-font-specification:ASTERA;word-spacing:0.01256048px;fill:#303030;fill-opacity:1;stroke-width:0.4319126"
         id="path3403" />
      <path
         d="m 35.450988,179.4869 h 2.809119 q 0.04218,0.008 0.04218,0.0422 v 8.96725 q 0,0.0422 -0.04218,0.0422 h -2.809119 q -0.04218,0 -0.04218,-0.0422 v -8.96725 q 0.0084,-0.0422 0.04218,-0.0422 z"
         style="font-style:normal;font-variant:normal;font-weight:normal;font-stretch:normal;font-family:ASTERA;-inkscape-font-specification:ASTERA;word-spacing:0.01256048px;fill:#303030;fill-opacity:1;stroke-width:0.4319126"
         id="path3405" />
      <path
         d="m 39.196479,179.4869 h 9.515576 q 1.619672,0 2.589788,1.40034 0.286817,0.5652 0.286817,1.05447 v 0.13497 q 0,1.07979 -1.054474,1.90649 1.054474,0.88576 1.054474,1.76309 v 0.40491 q 0,1.08822 -1.240061,1.94024 -0.835144,0.40491 -1.214755,0.40491 0,0.0422 -0.101229,0.0422 h -9.836136 q -0.04218,0 -0.04218,-0.0422 v -8.96725 q 0.0084,-0.0422 0.04218,-0.0422 z m 2.851298,2.15112 v 1.39191 h 5.871313 q 0.531455,0 0.733914,-0.46397 0.03374,-0.20246 0.03374,-0.24464 0,-0.49771 -0.607377,-0.6833 z m 0,3.35745 v 1.40034 h 5.871313 q 0.531455,0 0.733914,-0.4724 0.03374,-0.20246 0.03374,-0.23621 0,-0.42179 -0.438661,-0.63268 -0.134973,-0.059 -0.328996,-0.059 z"
         style="font-style:normal;font-variant:normal;font-weight:normal;font-stretch:normal;font-family:ASTERA;-inkscape-font-specification:ASTERA;word-spacing:0.01256048px;fill:#303030;fill-opacity:1;stroke-width:0.4319126"
         id="path3407" />
      <path
         d="m 57.772097,179.4869 h 2.876606 q 0.08436,0.0759 1.779953,2.96096 3.424932,5.81226 3.56834,6.07377 v 0.0169 h -3.323702 q -0.09279,-0.0844 -1.096654,-1.82213 h -4.715609 q -0.953244,1.66185 -1.071345,1.82213 h -3.340575 v -0.0422 q 5.128963,-8.71417 5.322986,-9.00942 z m 1.442521,3.26465 -1.079782,1.82213 h 2.167999 q -1.029166,-1.76308 -1.088217,-1.82213 z"
         style="font-style:normal;font-variant:normal;font-weight:normal;font-stretch:normal;font-family:ASTERA;-inkscape-font-specification:ASTERA;word-spacing:0.01256048px;fill:#303030;fill-opacity:1;stroke-width:0.4319126"
         id="path3409" />
      <path
         d="m 66.89963,179.4869 h 9.532448 q 1.299112,0 2.269228,0.99542 0.590506,0.6833 0.590506,1.47626 v 1.63655 q 0,1.2738 -1.400342,2.10895 l -0.362739,0.16028 1.763081,2.65727 -0.04218,0.0169 h -3.424932 q -0.126537,-0.14341 -1.678723,-2.48856 h -4.395049 v 2.44638 q 0,0.0422 -0.04218,0.0422 h -2.80912 q -0.04218,0 -0.04218,-0.0422 v -8.96725 q 0.0084,-0.0422 0.04218,-0.0422 z m 2.851299,2.15112 v 2.2608 h 5.491702 q 0.877322,0 1.113525,-0.76766 0.03374,-0.17715 0.03374,-0.34587 0,-0.81827 -0.683299,-1.08822 -0.210895,-0.059 -0.430226,-0.059 z"
         style="font-style:normal;font-variant:normal;font-weight:normal;font-stretch:normal;font-family:ASTERA;-inkscape-font-specification:ASTERA;word-spacing:0.01256048px;fill:#303030;fill-opacity:1;stroke-width:0.4319126"
         id="path3411" />
      <path
         d="m 80.194438,179.4869 h 2.809119 q 0.04218,0.008 0.04218,0.0422 v 8.96725 q 0,0.0422 -0.04218,0.0422 h -2.809119 q -0.04218,0 -0.04218,-0.0422 v -8.96725 q 0.0084,-0.0422 0.04218,-0.0422 z"
         style="font-style:normal;font-variant:normal;font-weight:normal;font-stretch:normal;font-family:ASTERA;-inkscape-font-specification:ASTERA;word-spacing:0.01256048px;fill:#303030;fill-opacity:1;stroke-width:0.4319126"
         id="path3413" />
      <path
         d="m 83.939929,179.4869 h 9.515576 q 1.619672,0 2.589789,1.40034 0.286817,0.5652 0.286817,1.05447 v 0.13497 q 0,1.07979 -1.054475,1.90649 1.054475,0.88576 1.054475,1.76309 v 0.40491 q 0,1.08822 -1.240062,1.94024 -0.835144,0.40491 -1.214755,0.40491 0,0.0422 -0.101229,0.0422 h -9.836136 q -0.04218,0 -0.04218,-0.0422 v -8.96725 q 0.0084,-0.0422 0.04218,-0.0422 z m 2.851298,2.15112 v 1.39191 h 5.871313 q 0.531455,0 0.733914,-0.46397 0.03374,-0.20246 0.03374,-0.24464 0,-0.49771 -0.607377,-0.6833 z m 0,3.35745 v 1.40034 h 5.871313 q 0.531455,0 0.733914,-0.4724 0.03374,-0.20246 0.03374,-0.23621 0,-0.42179 -0.438661,-0.63268 -0.134973,-0.059 -0.328996,-0.059 z"
         style="font-style:normal;font-variant:normal;font-weight:normal;font-stretch:normal;font-family:ASTERA;-inkscape-font-specification:ASTERA;word-spacing:0.01256048px;fill:#303030;fill-opacity:1;stroke-width:0.4319126"
         id="path3415" />
      <path
         d="m 105.6831,179.4869 h 12.35 q 0.0422,0.008 0.0422,0.0422 v 2.06677 q 0,0.0422 -0.0422,0.0422 h -9.4987 v 1.39191 h 7.02702 q 0.0422,0.008 0.0422,0.0422 v 1.88118 q 0,0.0422 -0.0422,0.0422 h -7.02702 v 1.40034 h 9.4987 q 0.0422,0 0.0422,0.0337 v 2.06677 q 0,0.0422 -0.0422,0.0422 h -12.35 q -0.0422,0 -0.0422,-0.0422 v -8.96725 q 0.008,-0.0422 0.0422,-0.0422 z"
         style="fill:#e00000;fill-opacity:1"
         id="path3417" />
    </g>
    <path
       sodipodi:nodetypes="ccccc"
       style="color:#000000;font-style:normal;font-variant:normal;font-weight:normal;font-stretch:normal;font-size:medium;line-height:normal;font-family:sans-serif;font-variant-ligatures:normal;font-variant-position:normal;font-variant-caps:normal;font-variant-numeric:normal;font-variant-alternates:normal;font-feature-settings:normal;text-indent:0;text-align:start;text-decoration:none;text-decoration-line:none;text-decoration-style:solid;text-decoration-color:#000000;letter-spacing:normal;word-spacing:normal;text-transform:none;writing-mode:lr-tb;direction:ltr;text-orientation:mixed;dominant-baseline:auto;baseline-shift:baseline;text-anchor:start;white-space:normal;shape-padding:0;clip-rule:nonzero;display:inline;overflow:visible;visibility:visible;opacity:1;isolation:auto;mix-blend-mode:normal;color-interpolation:sRGB;color-interpolation-filters:linearRGB;solid-color:#000000;solid-opacity:1;vector-effect:none;fill:#e00000;fill-opacity:1;fill-rule:nonzero;stroke:none;stroke-width:0.40000001;stroke-linecap:butt;stroke-linejoin:miter;stroke-miterlimit:4;stroke-dasharray:none;stroke-dashoffset:0;stroke-opacity:1;color-rendering:auto;image-rendering:auto;shape-rendering:auto;text-rendering:auto;enable-background:accumulate"
       d="m -6.11592,192.13512 v 0.40039 h 121.98243 v -0.40039 z"
       id="path1344"
       inkscape:connector-curvature="0" />
    <path
       style="opacity:1;fill:#e00000;fill-opacity:1;stroke:none;stroke-width:0.22906789;stroke-linecap:butt;stroke-linejoin:miter;stroke-miterlimit:4;stroke-dasharray:none;stroke-opacity:1"
       d="m -33.827322,176.16101 c -2.280671,0 -4.11706,1.83588 -4.11706,4.11655 v 18.75441 c 0,2.28067 1.836389,4.11654 4.11706,4.11654 h 18.753895 c 2.280674,0 4.116546,-1.83587 4.116546,-4.11654 v -18.75441 c 0,-2.28067 -1.835872,-4.11655 -4.116546,-4.11655 z m 14.43943,7.18096 -4.641578,11.99772 10.608657,0.44028 -21.56096,0.24237 4.491718,-3.65198 z"
       id="path1346"
       inkscape:connector-curvature="0" />
    <path
       style="opacity:1;fill:#303030;fill-opacity:1;stroke:none;stroke-width:0.40000001;stroke-linecap:butt;stroke-linejoin:miter;stroke-miterlimit:4;stroke-dasharray:none;stroke-opacity:1"
       d="m 114.94124,191.40971 h 1.85109 v 1.8511 h -1.85109 z"
       id="rect1350" />
    <g
       aria-label="Racing"
       style="font-style:normal;font-weight:normal;font-size:10.68348694px;line-height:1.25;font-family:sans-serif;letter-spacing:0px;word-spacing:0px;fill:#e00000;fill-opacity:1;stroke:none;stroke-width:0.26708716"
       id="text1354">
      <path
         d="m -5.4558721,195.43028 h 5.89469742 q 0.80334818,0 1.40325098,0.61555 0.3651582,0.42254 0.3651582,0.91289 v 1.01201 q 0,0.7877 -0.8659467,1.30414 l -0.2243115,0.0991 1.0902582,1.64322 -0.026083,0.0104 H 0.06323398 q -0.0782482,-0.0887 -1.03809273,-1.53888 H -3.6926794 v 1.5128 q 0,0.0261 -0.026083,0.0261 h -1.73711 q -0.026083,0 -0.026083,-0.0261 v -5.54519 q 0.00522,-0.0261 0.026083,-0.0261 z m 1.7631927,1.33021 v 1.39804 h 3.39597168 q 0.54252082,0 0.68858412,-0.47471 0.0208662,-0.10954 0.0208662,-0.21387 0,-0.50601 -0.42254025,-0.67294 -0.13041366,-0.0365 -0.26604386,-0.0365 z"
         style="font-style:normal;font-variant:normal;font-weight:normal;font-stretch:normal;font-family:ASTERA;-inkscape-font-specification:ASTERA;fill:#e00000;fill-opacity:1;stroke-width:0.26708716"
         id="path3421" />
      <path
         d="m 6.0309632,195.43028 h 1.7788423 q 0.052165,0.0469 1.1006913,1.831 2.1179182,3.5942 2.2065992,3.75592 v 0.0104 H 9.0617766 q -0.057382,-0.0522 -0.678151,-1.12677 H 5.4675762 q -0.5894698,1.02766 -0.6625014,1.12677 H 2.7393224 v -0.0261 q 3.1716602,-5.3887 3.2916408,-5.57127 z m 0.8920294,2.0188 -0.6677179,1.12677 h 1.3406524 q -0.6364187,-1.09026 -0.6729345,-1.12677 z"
         style="font-style:normal;font-variant:normal;font-weight:normal;font-stretch:normal;font-family:ASTERA;-inkscape-font-specification:ASTERA;fill:#e00000;fill-opacity:1;stroke-width:0.26708716"
         id="path3423" />
      <path
         d="m 13.39151,195.43028 h 5.92078 q 0.02608,0.005 0.02608,0.0261 v 1.27805 q 0,0.0261 -0.02608,0.0261 h -4.960936 q -0.672934,0 -0.897246,0.73554 -0.01565,0.13041 -0.01565,0.20344 v 1.08504 q 0,0.61556 0.615553,0.86595 0.125197,0.0522 0.297343,0.0522 h 4.960936 q 0.02608,0 0.02608,0.0209 v 1.27806 q 0,0.0261 -0.02608,0.0261 h -5.884265 q -0.912895,0 -1.518015,-0.74075 -0.260827,-0.37559 -0.260827,-0.77205 v -2.60827 q 0,-0.68337 0.777265,-1.19981 0.506005,-0.27647 0.965062,-0.27647 z"
         style="font-style:normal;font-variant:normal;font-weight:normal;font-stretch:normal;font-family:ASTERA;-inkscape-font-specification:ASTERA;fill:#e00000;fill-opacity:1;stroke-width:0.26708716"
         id="path3425" />
      <path
         d="m 19.896545,195.43028 h 1.73711 q 0.02608,0.005 0.02608,0.0261 v 5.54519 q 0,0.0261 -0.02608,0.0261 h -1.73711 q -0.02608,0 -0.02608,-0.0261 v -5.54519 q 0.0052,-0.0261 0.02608,-0.0261 z"
         style="font-style:normal;font-variant:normal;font-weight:normal;font-stretch:normal;font-family:ASTERA;-inkscape-font-specification:ASTERA;fill:#e00000;fill-opacity:1;stroke-width:0.26708716"
         id="path3427" />
      <path
         d="m 22.21269,195.43028 h 1.752759 q 1.60148,1.46584 4.105422,3.78199 h 0.01043 v -3.75591 q 0.0052,-0.0261 0.02608,-0.0261 h 1.742327 q 0.02608,0.005 0.02608,0.0261 v 5.54519 q 0,0.0261 -0.02608,0.0261 h -1.778843 l -4.094988,-3.76635 v 3.74027 q 0,0.0261 -0.02608,0.0261 h -1.73711 q -0.02608,0 -0.02608,-0.0261 v -5.54519 q 0.0052,-0.0261 0.02608,-0.0261 z"
         style="font-style:normal;font-variant:normal;font-weight:normal;font-stretch:normal;font-family:ASTERA;-inkscape-font-specification:ASTERA;fill:#e00000;fill-opacity:1;stroke-width:0.26708716"
         id="path3429" />
      <path
         d="m 32.150211,195.43028 h 5.92078 q 0.02608,0.005 0.02608,0.0261 v 1.27805 q 0,0.0261 -0.02608,0.0261 h -4.960936 q -0.636418,0 -0.886812,0.67294 -0.02608,0.14085 -0.02608,0.20344 v 1.14764 q 0,0.61556 0.615552,0.86595 0.125197,0.0522 0.297343,0.0522 h 3.192527 v -1.02766 q 0.0052,-0.0261 0.02608,-0.0261 h 1.742327 q 0.02608,0.005 0.02608,0.0261 v 2.32658 q 0,0.0261 -0.02608,0.0261 h -5.884264 q -0.813782,0 -1.413684,-0.61555 -0.365159,-0.42776 -0.365159,-0.9129 v -2.55089 q 0,-0.8503 0.975495,-1.34065 0.427756,-0.17736 0.766832,-0.17736 z"
         style="font-style:normal;font-variant:normal;font-weight:normal;font-stretch:normal;font-family:ASTERA;-inkscape-font-specification:ASTERA;fill:#e00000;fill-opacity:1;stroke-width:0.26708716"
         id="path3431" />
    </g>
    <path
       style="opacity:1;fill:#e00000;fill-opacity:1;stroke:none;stroke-width:0.40000001;stroke-linecap:butt;stroke-linejoin:miter;stroke-miterlimit:4;stroke-dasharray:none;stroke-opacity:1"
       d="m 114.94124,191.40971 h 1.85109 v 1.8511 h -1.85109 z"
       id="rect1356" />
    <path
       style="opacity:1;fill:#303030;fill-opacity:1;stroke:none;stroke-width:0.79892856;stroke-linecap:butt;stroke-linejoin:miter;stroke-miterlimit:4;stroke-dasharray:none;stroke-opacity:1"
       d="m 100.76373,183.00574 c 1.02413,0 1.84861,0.82448 1.84861,1.84861 0,1.02413 -0.82448,1.84862 -1.84861,1.84862 -1.024132,0 -1.848615,-0.82449 -1.848615,-1.84862 0,-1.02413 0.824483,-1.84861 1.848615,-1.84861 z"
       id="rect1358" />
  </g>
</svg>
