<?xml version="1.0" encoding="UTF-8" standalone="no"?>
<!-- Created with Inkscape (http://www.inkscape.org/) -->

<svg
   xmlns:dc="http://purl.org/dc/elements/1.1/"
   xmlns:cc="http://creativecommons.org/ns#"
   xmlns:rdf="http://www.w3.org/1999/02/22-rdf-syntax-ns#"
   xmlns:svg="http://www.w3.org/2000/svg"
   xmlns="http://www.w3.org/2000/svg"
   xmlns:sodipodi="http://sodipodi.sourceforge.net/DTD/sodipodi-0.dtd"
   xmlns:inkscape="http://www.inkscape.org/namespaces/inkscape"
   width="156.01965mm"
   height="26.987501mm"
   viewBox="0 0 156.01965 26.987501"
   version="1.1"
   id="svg2166"
   inkscape:version="0.92.3 (2405546, 2018-03-11)"
   sodipodi:docname="light.svg">
  <defs
     id="defs2160" />
  <sodipodi:namedview
     id="base"
     pagecolor="#ffffff"
     bordercolor="#666666"
     borderopacity="1.0"
     inkscape:pageopacity="0.0"
     inkscape:pageshadow="2"
     inkscape:zoom="0.7"
     inkscape:cx="-74.756186"
     inkscape:cy="35.136966"
     inkscape:document-units="mm"
     inkscape:current-layer="layer1"
     showgrid="false"
     inkscape:window-width="1360"
     inkscape:window-height="715"
     inkscape:window-x="0"
     inkscape:window-y="30"
     inkscape:window-maximized="1" />
  <metadata
     id="metadata2163">
    <rdf:RDF>
      <cc:Work
         rdf:about="">
        <dc:format>image/svg+xml</dc:format>
        <dc:type
           rdf:resource="http://purl.org/dc/dcmitype/StillImage" />
        <dc:title />
      </cc:Work>
    </rdf:RDF>
  </metadata>
  <g
     inkscape:label="Camada 1"
     inkscape:groupmode="layer"
     id="layer1"
     transform="translate(-23.17339,-102.83371)">
    <g
       aria-label="capibarib e"
       style="font-style:normal;font-weight:normal;font-size:17.27650642px;line-height:1.25;font-family:sans-serif;letter-spacing:0px;word-spacing:0px;fill:#ffffff;fill-opacity:1;stroke:none;stroke-width:0.4319126"
       id="text1316">
      <path
         d="m 58.346164,106.15958 h 9.574626 q 0.04218,0.008 0.04218,0.0422 v 2.06677 q 0,0.0422 -0.04218,0.0422 h -8.02244 q -1.088217,0 -1.450956,1.18944 -0.02531,0.2109 -0.02531,0.329 v 1.75465 q 0,0.99542 0.995424,1.40034 0.202459,0.0844 0.48084,0.0844 h 8.02244 q 0.04218,0 0.04218,0.0337 v 2.06677 q 0,0.0422 -0.04218,0.0422 h -9.515575 q -1.476264,0 -2.454816,-1.19789 -0.42179,-0.60737 -0.42179,-1.24849 v -4.2179 q 0,-1.10509 1.256933,-1.94023 0.818272,-0.4471 1.560622,-0.4471 z"
         style="font-style:normal;font-variant:normal;font-weight:normal;font-stretch:normal;font-family:ASTERA;-inkscape-font-specification:ASTERA;word-spacing:0.01256048px;fill:#ffffff;fill-opacity:1;stroke-width:0.4319126"
         id="path825" />
      <path
         d="m 74.146406,106.15958 h 2.876606 q 0.08436,0.0759 1.779953,2.96096 3.424932,5.81227 3.568341,6.07378 v 0.0169 h -3.323703 q -0.09279,-0.0844 -1.096654,-1.82213 H 73.23534 q -0.953244,1.66185 -1.071345,1.82213 H 68.82342 v -0.0422 q 5.128963,-8.71418 5.322986,-9.00943 z m 1.442521,3.26465 -1.079782,1.82213 h 2.167999 q -1.029166,-1.76308 -1.088217,-1.82213 z"
         style="font-style:normal;font-variant:normal;font-weight:normal;font-stretch:normal;font-family:ASTERA;-inkscape-font-specification:ASTERA;word-spacing:0.01256048px;fill:#ffffff;fill-opacity:1;stroke-width:0.4319126"
         id="path827" />
      <path
         d="m 83.273936,106.15958 h 9.515576 q 1.484699,0 2.471687,1.21475 0.404918,0.64112 0.404918,1.21476 v 1.67872 q 0,1.22319 -1.315984,2.06677 -0.750785,0.38805 -1.484699,0.38805 h -6.7402 v 2.44638 q 0,0.0422 -0.04218,0.0422 h -2.809119 q -0.04218,0 -0.04218,-0.0422 v -8.96725 q 0.0084,-0.0422 0.04218,-0.0422 z m 2.851298,2.15113 v 2.26079 h 5.491702 q 0.877323,0 1.113525,-0.76766 0.03374,-0.17715 0.03374,-0.34586 0,-0.81828 -0.683299,-1.08822 -0.210895,-0.059 -0.430226,-0.059 z"
         style="font-style:normal;font-variant:normal;font-weight:normal;font-stretch:normal;font-family:ASTERA;-inkscape-font-specification:ASTERA;word-spacing:0.01256048px;fill:#ffffff;fill-opacity:1;stroke-width:0.4319126"
         id="path829" />
      <path
         d="m 96.568747,106.15958 h 2.809119 q 0.04218,0.008 0.04218,0.0422 v 8.96725 q 0,0.0422 -0.04218,0.0422 h -2.809119 q -0.04218,0 -0.04218,-0.0422 v -8.96725 q 0.0084,-0.0422 0.04218,-0.0422 z"
         style="font-style:normal;font-variant:normal;font-weight:normal;font-stretch:normal;font-family:ASTERA;-inkscape-font-specification:ASTERA;word-spacing:0.01256048px;fill:#ffffff;fill-opacity:1;stroke-width:0.4319126"
         id="path831" />
      <path
         d="m 100.31424,106.15958 h 9.51557 q 1.61968,0 2.58979,1.40034 0.28682,0.5652 0.28682,1.05448 v 0.13497 q 0,1.07978 -1.05447,1.90649 1.05447,0.88576 1.05447,1.76308 v 0.40492 q 0,1.08821 -1.24006,1.94023 -0.83515,0.40492 -1.21476,0.40492 0,0.0422 -0.10123,0.0422 h -9.83613 q -0.0422,0 -0.0422,-0.0422 v -8.96725 q 0.008,-0.0422 0.0422,-0.0422 z m 2.8513,2.15113 v 1.3919 h 5.87131 q 0.53145,0 0.73391,-0.46397 0.0337,-0.20245 0.0337,-0.24463 0,-0.49772 -0.60738,-0.6833 z m 0,3.35744 v 1.40035 h 5.87131 q 0.53145,0 0.73391,-0.47241 0.0337,-0.20246 0.0337,-0.2362 0,-0.42179 -0.43866,-0.63269 -0.13498,-0.059 -0.329,-0.059 z"
         style="font-style:normal;font-variant:normal;font-weight:normal;font-stretch:normal;font-family:ASTERA;-inkscape-font-specification:ASTERA;word-spacing:0.01256048px;fill:#ffffff;fill-opacity:1;stroke-width:0.4319126"
         id="path833" />
      <path
         d="m 118.88986,106.15958 h 2.8766 q 0.0844,0.0759 1.77995,2.96096 3.42494,5.81227 3.56835,6.07378 v 0.0169 h -3.32371 q -0.0928,-0.0844 -1.09665,-1.82213 h -4.71561 q -0.95324,1.66185 -1.07135,1.82213 h -3.34057 v -0.0422 q 5.12896,-8.71418 5.32299,-9.00943 z m 1.44252,3.26465 -1.07978,1.82213 h 2.16799 q -1.02916,-1.76308 -1.08821,-1.82213 z"
         style="font-style:normal;font-variant:normal;font-weight:normal;font-stretch:normal;font-family:ASTERA;-inkscape-font-specification:ASTERA;word-spacing:0.01256048px;fill:#ffffff;fill-opacity:1;stroke-width:0.4319126"
         id="path835" />
      <path
         d="m 128.01739,106.15958 h 9.53245 q 1.29911,0 2.26923,0.99542 0.5905,0.6833 0.5905,1.47627 v 1.63654 q 0,1.27381 -1.40034,2.10895 l -0.36274,0.16028 1.76308,2.65728 -0.0422,0.0169 h -3.42493 q -0.12654,-0.14341 -1.67872,-2.48856 h -4.39505 v 2.44638 q 0,0.0422 -0.0422,0.0422 h -2.80912 q -0.0422,0 -0.0422,-0.0422 v -8.96725 q 0.008,-0.0422 0.0422,-0.0422 z m 2.8513,2.15113 v 2.26079 h 5.4917 q 0.87732,0 1.11352,-0.76766 0.0337,-0.17715 0.0337,-0.34586 0,-0.81828 -0.6833,-1.08822 -0.2109,-0.059 -0.43023,-0.059 z"
         style="font-style:normal;font-variant:normal;font-weight:normal;font-stretch:normal;font-family:ASTERA;-inkscape-font-specification:ASTERA;word-spacing:0.01256048px;fill:#ffffff;fill-opacity:1;stroke-width:0.4319126"
         id="path837" />
      <path
         d="m 141.3122,106.15958 h 2.80912 q 0.0422,0.008 0.0422,0.0422 v 8.96725 q 0,0.0422 -0.0422,0.0422 h -2.80912 q -0.0422,0 -0.0422,-0.0422 v -8.96725 q 0.008,-0.0422 0.0422,-0.0422 z"
         style="font-style:normal;font-variant:normal;font-weight:normal;font-stretch:normal;font-family:ASTERA;-inkscape-font-specification:ASTERA;word-spacing:0.01256048px;fill:#ffffff;fill-opacity:1;stroke-width:0.4319126"
         id="path839" />
      <path
         d="m 145.05769,106.15958 h 9.51557 q 1.61968,0 2.58979,1.40034 0.28682,0.5652 0.28682,1.05448 v 0.13497 q 0,1.07978 -1.05447,1.90649 1.05447,0.88576 1.05447,1.76308 v 0.40492 q 0,1.08821 -1.24006,1.94023 -0.83515,0.40492 -1.21476,0.40492 0,0.0422 -0.10123,0.0422 h -9.83613 q -0.0422,0 -0.0422,-0.0422 v -8.96725 q 0.008,-0.0422 0.0422,-0.0422 z m 2.8513,2.15113 v 1.3919 h 5.87131 q 0.53145,0 0.73391,-0.46397 0.0337,-0.20245 0.0337,-0.24463 0,-0.49772 -0.60738,-0.6833 z m 0,3.35744 v 1.40035 h 5.87131 q 0.53145,0 0.73391,-0.47241 0.0337,-0.20246 0.0337,-0.2362 0,-0.42179 -0.43866,-0.63269 -0.13498,-0.059 -0.329,-0.059 z"
         style="font-style:normal;font-variant:normal;font-weight:normal;font-stretch:normal;font-family:ASTERA;-inkscape-font-specification:ASTERA;word-spacing:0.01256048px;fill:#ffffff;fill-opacity:1;stroke-width:0.4319126"
         id="path841" />
      <path
         d="m 166.80086,106.15958 h 12.35 q 0.0422,0.008 0.0422,0.0422 v 2.06677 q 0,0.0422 -0.0422,0.0422 h -9.4987 v 1.3919 h 7.02701 q 0.0422,0.008 0.0422,0.0422 v 1.88118 q 0,0.0422 -0.0422,0.0422 h -7.02701 v 1.40035 h 9.4987 q 0.0422,0 0.0422,0.0337 v 2.06677 q 0,0.0422 -0.0422,0.0422 h -12.35 q -0.0422,0 -0.0422,-0.0422 v -8.96725 q 0.008,-0.0422 0.0422,-0.0422 z"
         style="font-style:normal;font-variant:normal;font-weight:normal;font-stretch:normal;font-family:ASTERA;-inkscape-font-specification:ASTERA;word-spacing:0.01256048px;fill:#ffffff;fill-opacity:1;stroke-width:0.4319126"
         id="path843" />
    </g>
    <path
       inkscape:connector-curvature="0"
       id="path1318"
       d="m 55.001838,118.8078 v 0.40039 H 176.98427 v -0.40039 z"
       style="color:#000000;font-style:normal;font-variant:normal;font-weight:normal;font-stretch:normal;font-size:medium;line-height:normal;font-family:sans-serif;font-variant-ligatures:normal;font-variant-position:normal;font-variant-caps:normal;font-variant-numeric:normal;font-variant-alternates:normal;font-feature-settings:normal;text-indent:0;text-align:start;text-decoration:none;text-decoration-line:none;text-decoration-style:solid;text-decoration-color:#000000;letter-spacing:normal;word-spacing:normal;text-transform:none;writing-mode:lr-tb;direction:ltr;text-orientation:mixed;dominant-baseline:auto;baseline-shift:baseline;text-anchor:start;white-space:normal;shape-padding:0;clip-rule:nonzero;display:inline;overflow:visible;visibility:visible;opacity:1;isolation:auto;mix-blend-mode:normal;color-interpolation:sRGB;color-interpolation-filters:linearRGB;solid-color:#000000;solid-opacity:1;vector-effect:none;fill:#ffffff;fill-opacity:1;fill-rule:nonzero;stroke:none;stroke-width:0.40000001;stroke-linecap:butt;stroke-linejoin:miter;stroke-miterlimit:4;stroke-dasharray:none;stroke-dashoffset:0;stroke-opacity:1;color-rendering:auto;image-rendering:auto;shape-rendering:auto;text-rendering:auto;enable-background:accumulate"
       sodipodi:nodetypes="ccccc" />
    <g
       style="fill:#ffffff;fill-opacity:1;stroke:none"
       transform="matrix(0.86440716,0,0,0.86440716,114.27028,225.1671)"
       id="g1322">
      <path
         style="opacity:1;fill:#ffffff;fill-opacity:1;stroke:none;stroke-width:0.86576837;stroke-linecap:butt;stroke-linejoin:miter;stroke-miterlimit:4;stroke-dasharray:none;stroke-opacity:1"
         d="m -674.79102,139 c -8.61986,0 -15.56054,6.93873 -15.56054,15.55859 v 70.88282 c 0,8.61986 6.94068,15.55859 15.56054,15.55859 h 70.88086 c 8.61987,0 15.5586,-6.93873 15.5586,-15.55859 v -70.88282 c 0,-8.61986 -6.93873,-15.55859 -15.5586,-15.55859 z m 54.57422,27.14062 -17.54297,45.34571 40.09571,1.66406 -81.49024,0.91602 16.97657,-13.80274 z"
         transform="matrix(0.30608647,0,0,0.30608647,105.92072,-184.0689)"
         id="path1320"
         inkscape:connector-curvature="0" />
    </g>
    <path
       style="opacity:1;fill:#ffffff;fill-opacity:0;stroke:none;stroke-width:0.40000001;stroke-linecap:butt;stroke-linejoin:miter;stroke-miterlimit:4;stroke-dasharray:none;stroke-opacity:1"
       d="m 176.05899,118.08238 h 1.85109 v 1.8511 h -1.85109 z"
       id="rect1324" />
    <g
       aria-label="Racing"
       style="font-style:normal;font-weight:normal;font-size:10.68348694px;line-height:1.25;font-family:sans-serif;letter-spacing:0px;word-spacing:0px;fill:#ffffff;fill-opacity:1;stroke:none;stroke-width:0.26708716"
       id="text1328">
      <path
         d="m 55.661883,122.10297 h 5.894698 q 0.803348,0 1.403251,0.61556 0.365158,0.42254 0.365158,0.91289 v 1.01201 q 0,0.7877 -0.865947,1.30414 l -0.224311,0.0991 1.090258,1.64322 -0.02608,0.0104 h -2.117918 q -0.07825,-0.0887 -1.038092,-1.53888 h -2.717821 v 1.5128 q 0,0.0261 -0.02608,0.0261 h -1.73711 q -0.02608,0 -0.02608,-0.0261 v -5.54519 q 0.0052,-0.0261 0.02608,-0.0261 z m 1.763193,1.33022 v 1.39804 h 3.395972 q 0.542521,0 0.688584,-0.47471 0.02087,-0.10955 0.02087,-0.21388 0,-0.506 -0.42254,-0.67293 -0.130414,-0.0365 -0.266044,-0.0365 z"
         style="font-style:normal;font-variant:normal;font-weight:normal;font-stretch:normal;font-family:ASTERA;-inkscape-font-specification:ASTERA;fill:#ffffff;fill-opacity:1;stroke-width:0.26708716"
         id="path847" />
      <path
         d="m 67.148719,122.10297 h 1.778842 q 0.05217,0.0469 1.100691,1.83101 2.117918,3.5942 2.206599,3.75592 v 0.0104 h -2.055319 q -0.05738,-0.0522 -0.678151,-1.12678 h -2.916049 q -0.58947,1.02766 -0.662502,1.12678 h -2.065752 v -0.0261 q 3.17166,-5.3887 3.291641,-5.57128 z m 0.892029,2.01881 -0.667718,1.12677 h 1.340653 q -0.636419,-1.09026 -0.672935,-1.12677 z"
         style="font-style:normal;font-variant:normal;font-weight:normal;font-stretch:normal;font-family:ASTERA;-inkscape-font-specification:ASTERA;fill:#ffffff;fill-opacity:1;stroke-width:0.26708716"
         id="path849" />
      <path
         d="m 74.509265,122.10297 h 5.92078 q 0.02608,0.005 0.02608,0.0261 v 1.27805 q 0,0.0261 -0.02608,0.0261 h -4.960936 q -0.672934,0 -0.897245,0.73554 -0.01565,0.13041 -0.01565,0.20344 v 1.08504 q 0,0.61556 0.615552,0.86595 0.125197,0.0522 0.297343,0.0522 h 4.960936 q 0.02608,0 0.02608,0.0209 v 1.27806 q 0,0.0261 -0.02608,0.0261 h -5.884264 q -0.912896,0 -1.518015,-0.74075 -0.260828,-0.37559 -0.260828,-0.77205 v -2.60827 q 0,-0.68337 0.777266,-1.19981 0.506005,-0.27648 0.965061,-0.27648 z"
         style="font-style:normal;font-variant:normal;font-weight:normal;font-stretch:normal;font-family:ASTERA;-inkscape-font-specification:ASTERA;fill:#ffffff;fill-opacity:1;stroke-width:0.26708716"
         id="path851" />
      <path
         d="m 81.0143,122.10297 h 1.73711 q 0.02608,0.005 0.02608,0.0261 v 5.54519 q 0,0.0261 -0.02608,0.0261 H 81.0143 q -0.02608,0 -0.02608,-0.0261 v -5.54519 q 0.0052,-0.0261 0.02608,-0.0261 z"
         style="font-style:normal;font-variant:normal;font-weight:normal;font-stretch:normal;font-family:ASTERA;-inkscape-font-specification:ASTERA;fill:#ffffff;fill-opacity:1;stroke-width:0.26708716"
         id="path853" />
      <path
         d="m 83.330445,122.10297 h 1.75276 q 1.60148,1.46585 4.105422,3.782 h 0.01043 v -3.75591 q 0.0052,-0.0261 0.02608,-0.0261 h 1.742326 q 0.02608,0.005 0.02608,0.0261 v 5.54519 q 0,0.0261 -0.02608,0.0261 h -1.778842 l -4.094989,-3.76635 v 3.74027 q 0,0.0261 -0.02608,0.0261 h -1.73711 q -0.02608,0 -0.02608,-0.0261 v -5.54519 q 0.0052,-0.0261 0.02608,-0.0261 z"
         style="font-style:normal;font-variant:normal;font-weight:normal;font-stretch:normal;font-family:ASTERA;-inkscape-font-specification:ASTERA;fill:#ffffff;fill-opacity:1;stroke-width:0.26708716"
         id="path855" />
      <path
         d="m 93.267966,122.10297 h 5.92078 q 0.02608,0.005 0.02608,0.0261 v 1.27805 q 0,0.0261 -0.02608,0.0261 h -4.960935 q -0.636419,0 -0.886813,0.67294 -0.02608,0.14084 -0.02608,0.20344 v 1.14764 q 0,0.61556 0.615553,0.86595 0.125197,0.0522 0.297343,0.0522 h 3.192526 v -1.02766 q 0.0052,-0.0261 0.02608,-0.0261 h 1.742326 q 0.02608,0.005 0.02608,0.0261 v 2.32658 q 0,0.0261 -0.02608,0.0261 h -5.884264 q -0.813781,0 -1.413684,-0.61555 -0.365158,-0.42776 -0.365158,-0.9129 v -2.55089 q 0,-0.8503 0.975494,-1.34065 0.427757,-0.17737 0.766832,-0.17737 z"
         style="font-style:normal;font-variant:normal;font-weight:normal;font-stretch:normal;font-family:ASTERA;-inkscape-font-specification:ASTERA;fill:#ffffff;fill-opacity:1;stroke-width:0.26708716"
         id="path857" />
    </g>
    <path
       style="opacity:1;fill:#ffffff;fill-opacity:1;stroke:none;stroke-width:0.40000001;stroke-linecap:butt;stroke-linejoin:miter;stroke-miterlimit:4;stroke-dasharray:none;stroke-opacity:1"
       d="m 176.05899,118.08238 h 1.85109 v 1.8511 h -1.85109 z"
       id="rect1334" />
    <path
       style="opacity:1;fill:#ffffff;fill-opacity:1;stroke:none;stroke-width:0.79892856;stroke-linecap:butt;stroke-linejoin:miter;stroke-miterlimit:4;stroke-dasharray:none;stroke-opacity:1"
       d="m 161.88148,109.67839 c 1.02413,0 1.84862,0.82448 1.84862,1.84862 0,1.02413 -0.82449,1.84861 -1.84862,1.84861 -1.02413,0 -1.84861,-0.82448 -1.84861,-1.84861 0,-1.02414 0.82448,-1.84862 1.84861,-1.84862 z"
       id="rect1336" />
  </g>
</svg>
