<?xml version="1.0" encoding="UTF-8" standalone="no"?>
<!-- Created with Inkscape (http://www.inkscape.org/) -->

<svg
   xmlns:dc="http://purl.org/dc/elements/1.1/"
   xmlns:cc="http://creativecommons.org/ns#"
   xmlns:rdf="http://www.w3.org/1999/02/22-rdf-syntax-ns#"
   xmlns:svg="http://www.w3.org/2000/svg"
   xmlns="http://www.w3.org/2000/svg"
   xmlns:sodipodi="http://sodipodi.sourceforge.net/DTD/sodipodi-0.dtd"
   xmlns:inkscape="http://www.inkscape.org/namespaces/inkscape"
   width="50.941601mm"
   height="60.879208mm"
   viewBox="0 0 50.941601 60.87921"
   version="1.1"
   id="svg3465"
   inkscape:version="0.92.3 (2405546, 2018-03-11)"
   sodipodi:docname="light_vertical.svg">
  <defs
     id="defs3459" />
  <sodipodi:namedview
     id="base"
     pagecolor="#ffffff"
     bordercolor="#666666"
     borderopacity="1.0"
     inkscape:pageopacity="0.0"
     inkscape:pageshadow="2"
     inkscape:zoom="1.4"
     inkscape:cx="-22.064605"
     inkscape:cy="84.969934"
     inkscape:document-units="mm"
     inkscape:current-layer="layer1"
     showgrid="false"
     inkscape:window-width="1360"
     inkscape:window-height="715"
     inkscape:window-x="0"
     inkscape:window-y="30"
     inkscape:window-maximized="1" />
  <metadata
     id="metadata3462">
    <rdf:RDF>
      <cc:Work
         rdf:about="">
        <dc:format>image/svg+xml</dc:format>
        <dc:type
           rdf:resource="http://purl.org/dc/dcmitype/StillImage" />
        <dc:title></dc:title>
      </cc:Work>
    </rdf:RDF>
  </metadata>
  <g
     inkscape:label="Camada 1"
     inkscape:groupmode="layer"
     id="layer1"
     transform="translate(-91.701801,-134.09229)">
    <g
       id="g1294"
       transform="matrix(1.3644059,0,0,1.3644059,239.6635,327.18706)"
       style="fill:#ffffff;stroke:none">
      <path
         style="opacity:1;fill:#ffffff;fill-opacity:1;stroke:none;stroke-width:0.86576837;stroke-linecap:butt;stroke-linejoin:miter;stroke-miterlimit:4;stroke-dasharray:none;stroke-opacity:1"
         d="m 121.08008,519 c -8.61987,0 -15.5586,6.93873 -15.5586,15.55859 v 70.88282 c 0,8.61986 6.93873,15.55859 15.5586,15.55859 h 70.88086 c 8.61987,0 15.56054,-6.93873 15.56054,-15.55859 V 534.55859 C 207.52148,525.93873 200.58081,519 191.96094,519 Z m 54.57617,27.14062 -17.54492,45.34571 40.0957,1.66406 -81.48828,0.91602 16.97461,-13.80274 z"
         transform="matrix(0.30608647,0,0,0.30608647,-137.68489,-300.38175)"
         id="path1290"
         inkscape:connector-curvature="0" />
      <path
         sodipodi:nodetypes="ssccss"
         inkscape:connector-curvature="0"
         id="path1292"
         transform="matrix(0.26458333,0,0,0.26458333,-133.20714,-177.19107)"
         d="m 123.14844,134.80859 c -9.972,0 -18,8.028 -18,18 v 79.412 l 113.27734,-91.56043 c -3.28645,-3.59151 -8.00297,-5.85157 -13.27734,-5.85157 z"
         style="fill:#ffffff;fill-opacity:0.10550459;stroke:none;stroke-width:0.99999994px;stroke-linecap:butt;stroke-linejoin:miter;stroke-opacity:1" />
    </g>
    <g
       id="g1368"
       transform="translate(-117.37963,313.66468)"
       style="fill:#ffffff">
      <g
         style="fill:#ffffff;stroke:none"
         id="g1364"
         transform="translate(208.55617,-212.19574)">
        <path
           sodipodi:nodetypes="ccccc"
           inkscape:connector-curvature="0"
           id="path1362"
           d="M 0.52526063,87.755859 V 88.15625 H 50.541016 v -0.400391 z"
           style="color:#000000;font-style:normal;font-variant:normal;font-weight:normal;font-stretch:normal;font-size:medium;line-height:normal;font-family:sans-serif;font-variant-ligatures:normal;font-variant-position:normal;font-variant-caps:normal;font-variant-numeric:normal;font-variant-alternates:normal;font-feature-settings:normal;text-indent:0;text-align:start;text-decoration:none;text-decoration-line:none;text-decoration-style:solid;text-decoration-color:#000000;letter-spacing:normal;word-spacing:normal;text-transform:none;writing-mode:lr-tb;direction:ltr;text-orientation:mixed;dominant-baseline:auto;baseline-shift:baseline;text-anchor:start;white-space:normal;shape-padding:0;clip-rule:nonzero;display:inline;overflow:visible;visibility:visible;opacity:1;isolation:auto;mix-blend-mode:normal;color-interpolation:sRGB;color-interpolation-filters:linearRGB;solid-color:#000000;solid-opacity:1;vector-effect:none;fill:#ffffff;fill-opacity:1;fill-rule:nonzero;stroke:none;stroke-width:0.40000001;stroke-linecap:butt;stroke-linejoin:miter;stroke-miterlimit:4;stroke-dasharray:none;stroke-dashoffset:0;stroke-opacity:1;color-rendering:auto;image-rendering:auto;shape-rendering:auto;text-rendering:auto;enable-background:accumulate" />
      </g>
      <path
         style="opacity:1;fill:#ffffff;fill-opacity:1;stroke:none;stroke-width:0.40000001;stroke-linecap:butt;stroke-linejoin:miter;stroke-miterlimit:4;stroke-dasharray:none;stroke-opacity:1"
         d="m 258.17194,-125.16529 h 1.85109 v 1.85109 h -1.85109 z"
         id="rect1366" />
    </g>
    <g
       aria-label="capibarib e"
       style="font-style:normal;font-weight:normal;font-size:7.09061241px;line-height:1.25;font-family:sans-serif;letter-spacing:0px;word-spacing:0px;fill:#ffffff;fill-opacity:1;stroke:none;stroke-width:0.17726529"
       id="text1374">
      <path
         d="m 92.951842,182.39739 h 3.929612 q 0.01731,0.003 0.01731,0.0173 v 0.84824 q 0,0.0173 -0.01731,0.0173 H 93.58889 q -0.446626,0 -0.595501,0.48818 -0.01039,0.0866 -0.01039,0.13502 v 0.72014 q 0,0.40854 0.408541,0.57473 0.08309,0.0346 0.197347,0.0346 h 3.292564 q 0.01731,0 0.01731,0.0138 v 0.84824 q 0,0.0173 -0.01731,0.0173 h -3.905376 q -0.605887,0 -1.007504,-0.49163 -0.173111,-0.24928 -0.173111,-0.51241 v -1.7311 q 0,-0.45355 0.51587,-0.79631 0.335835,-0.1835 0.640509,-0.1835 z"
         style="font-style:normal;font-variant:normal;font-weight:normal;font-stretch:normal;font-family:ASTERA;-inkscape-font-specification:ASTERA;word-spacing:0.00515506px;fill:#ffffff;fill-opacity:1;stroke-width:0.17726529"
         id="path4045" />
      <path
         d="m 99.436567,182.39739 h 1.180613 q 0.0346,0.0312 0.73053,1.21524 1.40566,2.38546 1.46452,2.49279 v 0.007 h -1.36412 q -0.0381,-0.0346 -0.45008,-0.74783 h -1.935382 q -0.39123,0.68205 -0.439701,0.74783 h -1.371036 v -0.0173 q 2.105025,-3.57646 2.184656,-3.69764 z m 0.592043,1.33988 -0.443168,0.74783 h 0.889788 q -0.42239,-0.7236 -0.44662,-0.74783 z"
         style="font-style:normal;font-variant:normal;font-weight:normal;font-stretch:normal;font-family:ASTERA;-inkscape-font-specification:ASTERA;word-spacing:0.00515506px;fill:#ffffff;fill-opacity:1;stroke-width:0.17726529"
         id="path4047" />
      <path
         d="m 103.18268,182.39739 h 3.90538 q 0.60935,0 1.01443,0.49856 0.16618,0.26313 0.16618,0.49856 v 0.68898 q 0,0.50202 -0.5401,0.84824 -0.30814,0.15926 -0.60935,0.15926 h -2.76631 v 1.00404 q 0,0.0173 -0.0173,0.0173 h -1.15292 q -0.0173,0 -0.0173,-0.0173 v -3.68033 q 0.003,-0.0173 0.0173,-0.0173 z m 1.17023,0.88286 v 0.92788 h 2.2539 q 0.36007,0 0.45701,-0.31506 0.0138,-0.0727 0.0138,-0.14195 0,-0.33584 -0.28044,-0.44663 -0.0866,-0.0242 -0.17657,-0.0242 z"
         style="font-style:normal;font-variant:normal;font-weight:normal;font-stretch:normal;font-family:ASTERA;-inkscape-font-specification:ASTERA;word-spacing:0.00515506px;fill:#ffffff;fill-opacity:1;stroke-width:0.17726529"
         id="path4049" />
      <path
         d="m 108.63913,182.39739 h 1.15292 q 0.0173,0.003 0.0173,0.0173 v 3.68033 q 0,0.0173 -0.0173,0.0173 h -1.15292 q -0.0173,0 -0.0173,-0.0173 v -3.68033 q 0.003,-0.0173 0.0173,-0.0173 z"
         style="font-style:normal;font-variant:normal;font-weight:normal;font-stretch:normal;font-family:ASTERA;-inkscape-font-specification:ASTERA;word-spacing:0.00515506px;fill:#ffffff;fill-opacity:1;stroke-width:0.17726529"
         id="path4051" />
      <path
         d="m 110.17635,182.39739 h 3.90538 q 0.66474,0 1.0629,0.57473 0.11771,0.23197 0.11771,0.43277 v 0.0554 q 0,0.44316 -0.43277,0.78246 0.43277,0.36353 0.43277,0.7236 v 0.16619 q 0,0.44662 -0.50894,0.79631 -0.34276,0.16618 -0.49856,0.16618 0,0.0173 -0.0416,0.0173 h -4.03694 q -0.0173,0 -0.0173,-0.0173 v -3.68033 q 0.003,-0.0173 0.0173,-0.0173 z m 1.17023,0.88286 v 0.57127 h 2.4097 q 0.21812,0 0.30121,-0.19042 0.0139,-0.0831 0.0139,-0.10041 0,-0.20427 -0.24928,-0.28044 z m 0,1.37797 v 0.57472 h 2.4097 q 0.21812,0 0.30121,-0.19388 0.0139,-0.0831 0.0139,-0.0969 0,-0.17311 -0.18003,-0.25967 -0.0554,-0.0242 -0.13503,-0.0242 z"
         style="font-style:normal;font-variant:normal;font-weight:normal;font-stretch:normal;font-family:ASTERA;-inkscape-font-specification:ASTERA;word-spacing:0.00515506px;fill:#ffffff;fill-opacity:1;stroke-width:0.17726529"
         id="path4053" />
      <path
         d="m 117.80014,182.39739 h 1.18062 q 0.0346,0.0312 0.73053,1.21524 1.40565,2.38546 1.46451,2.49279 v 0.007 h -1.36411 q -0.0381,-0.0346 -0.45009,-0.74783 h -1.93537 q -0.39123,0.68205 -0.43971,0.74783 h -1.37103 v -0.0173 q 2.10502,-3.57646 2.18465,-3.69764 z m 0.59204,1.33988 -0.44316,0.74783 h 0.88979 q -0.42239,-0.7236 -0.44663,-0.74783 z"
         style="font-style:normal;font-variant:normal;font-weight:normal;font-stretch:normal;font-family:ASTERA;-inkscape-font-specification:ASTERA;word-spacing:0.00515506px;fill:#ffffff;fill-opacity:1;stroke-width:0.17726529"
         id="path4055" />
      <path
         d="m 121.54626,182.39739 h 3.9123 q 0.53318,0 0.93133,0.40854 0.24236,0.28044 0.24236,0.60589 v 0.67167 q 0,0.52279 -0.57473,0.86555 l -0.14887,0.0658 0.7236,1.0906 -0.0173,0.007 h -1.40566 q -0.0519,-0.0588 -0.68898,-1.02135 h -1.80381 v 1.00404 q 0,0.0173 -0.0173,0.0173 h -1.15292 q -0.0173,0 -0.0173,-0.0173 v -3.68033 q 0.003,-0.0173 0.0173,-0.0173 z m 1.17023,0.88286 v 0.92788 h 2.2539 q 0.36007,0 0.45701,-0.31506 0.0138,-0.0727 0.0138,-0.14195 0,-0.33584 -0.28044,-0.44663 -0.0866,-0.0242 -0.17657,-0.0242 z"
         style="font-style:normal;font-variant:normal;font-weight:normal;font-stretch:normal;font-family:ASTERA;-inkscape-font-specification:ASTERA;word-spacing:0.00515506px;fill:#ffffff;fill-opacity:1;stroke-width:0.17726529"
         id="path4057" />
      <path
         d="m 127.00271,182.39739 h 1.15292 q 0.0173,0.003 0.0173,0.0173 v 3.68033 q 0,0.0173 -0.0173,0.0173 h -1.15292 q -0.0173,0 -0.0173,-0.0173 v -3.68033 q 0.003,-0.0173 0.0173,-0.0173 z"
         style="font-style:normal;font-variant:normal;font-weight:normal;font-stretch:normal;font-family:ASTERA;-inkscape-font-specification:ASTERA;word-spacing:0.00515506px;fill:#ffffff;fill-opacity:1;stroke-width:0.17726529"
         id="path4059" />
      <path
         d="m 128.53993,182.39739 h 3.90537 q 0.66475,0 1.0629,0.57473 0.11772,0.23197 0.11772,0.43277 v 0.0554 q 0,0.44316 -0.43278,0.78246 0.43278,0.36353 0.43278,0.7236 v 0.16619 q 0,0.44662 -0.50895,0.79631 -0.34276,0.16618 -0.49855,0.16618 0,0.0173 -0.0415,0.0173 h -4.03694 q -0.0173,0 -0.0173,-0.0173 v -3.68033 q 0.003,-0.0173 0.0173,-0.0173 z m 1.17023,0.88286 v 0.57127 h 2.4097 q 0.21812,0 0.30121,-0.19042 0.0139,-0.0831 0.0139,-0.10041 0,-0.20427 -0.24928,-0.28044 z m 0,1.37797 v 0.57472 h 2.4097 q 0.21812,0 0.30121,-0.19388 0.0139,-0.0831 0.0139,-0.0969 0,-0.17311 -0.18004,-0.25967 -0.0554,-0.0242 -0.13502,-0.0242 z"
         style="font-style:normal;font-variant:normal;font-weight:normal;font-stretch:normal;font-family:ASTERA;-inkscape-font-specification:ASTERA;word-spacing:0.00515506px;fill:#ffffff;fill-opacity:1;stroke-width:0.17726529"
         id="path4061" />
      <path
         d="m 137.46374,182.39739 h 5.06868 q 0.0173,0.003 0.0173,0.0173 v 0.84824 q 0,0.0173 -0.0173,0.0173 h -3.89845 v 0.57127 h 2.88403 q 0.0173,0.003 0.0173,0.0173 v 0.77207 q 0,0.0173 -0.0173,0.0173 h -2.88403 v 0.57472 h 3.89845 q 0.0173,0 0.0173,0.0138 v 0.84824 q 0,0.0173 -0.0173,0.0173 h -5.06868 q -0.0173,0 -0.0173,-0.0173 v -3.68033 q 0.003,-0.0173 0.0173,-0.0173 z"
         style="font-style:normal;font-variant:normal;font-weight:normal;font-stretch:normal;font-family:ASTERA;-inkscape-font-specification:ASTERA;word-spacing:0.00515506px;fill:#ffffff;fill-opacity:1;stroke-width:0.17726529"
         id="path4063" />
    </g>
    <g
       aria-label="Racing"
       style="font-style:normal;font-weight:normal;font-size:6.515944px;line-height:1.25;font-family:sans-serif;letter-spacing:0px;word-spacing:0px;fill:#ffffff;fill-opacity:1;stroke:none;stroke-width:0.1628986"
       id="text1378">
      <path
         d="m 103.89894,191.55763 h 3.59522 q 0.48997,0 0.85586,0.37543 0.22271,0.25771 0.22271,0.55678 v 0.61723 q 0,0.48043 -0.52815,0.79541 l -0.13681,0.0605 0.66496,1.00221 -0.0159,0.006 h -1.29173 q -0.0477,-0.0541 -0.63314,-0.93858 h -1.65762 v 0.92267 q 0,0.0159 -0.0159,0.0159 h -1.05948 q -0.0159,0 -0.0159,-0.0159 v -3.38205 q 0.003,-0.0159 0.0159,-0.0159 z m 1.07539,0.81131 v 0.85267 h 2.07123 q 0.33089,0 0.41997,-0.28952 0.0127,-0.0668 0.0127,-0.13045 0,-0.30862 -0.25771,-0.41043 -0.0795,-0.0223 -0.16227,-0.0223 z"
         style="font-style:normal;font-variant:normal;font-weight:normal;font-stretch:normal;font-family:ASTERA;-inkscape-font-specification:ASTERA;fill:#ffffff;fill-opacity:1;stroke-width:0.1628986"
         id="path4066" />
      <path
         d="m 110.90485,191.55763 h 1.08493 q 0.0318,0.0286 0.67133,1.11674 1.29173,2.19214 1.34582,2.29077 v 0.006 h -1.25356 q -0.035,-0.0318 -0.41361,-0.68723 h -1.77852 q -0.35952,0.62678 -0.40406,0.68723 h -1.25992 v -0.0159 q 1.93442,-3.28661 2.00759,-3.39796 z m 0.54406,1.23128 -0.40725,0.68723 h 0.81768 q -0.38816,-0.66496 -0.41043,-0.68723 z"
         style="font-style:normal;font-variant:normal;font-weight:normal;font-stretch:normal;font-family:ASTERA;-inkscape-font-specification:ASTERA;fill:#ffffff;fill-opacity:1;stroke-width:0.1628986"
         id="path4068" />
      <path
         d="m 115.39411,191.55763 h 3.61113 q 0.0159,0.003 0.0159,0.0159 v 0.77949 q 0,0.0159 -0.0159,0.0159 h -3.02571 q -0.41043,0 -0.54724,0.44861 -0.01,0.0795 -0.01,0.12408 v 0.66178 q 0,0.37543 0.37544,0.52814 0.0763,0.0318 0.18135,0.0318 h 3.02571 q 0.0159,0 0.0159,0.0127 v 0.77949 q 0,0.0159 -0.0159,0.0159 h -3.58886 q -0.55678,0 -0.92585,-0.45179 -0.15908,-0.22908 -0.15908,-0.47088 v -1.59081 q 0,-0.41679 0.47406,-0.73177 0.30862,-0.16862 0.5886,-0.16862 z"
         style="font-style:normal;font-variant:normal;font-weight:normal;font-stretch:normal;font-family:ASTERA;-inkscape-font-specification:ASTERA;fill:#ffffff;fill-opacity:1;stroke-width:0.1628986"
         id="path4070" />
      <path
         d="m 119.36158,191.55763 h 1.05948 q 0.0159,0.003 0.0159,0.0159 v 3.38205 q 0,0.0159 -0.0159,0.0159 h -1.05948 q -0.0159,0 -0.0159,-0.0159 v -3.38205 q 0.003,-0.0159 0.0159,-0.0159 z"
         style="font-style:normal;font-variant:normal;font-weight:normal;font-stretch:normal;font-family:ASTERA;-inkscape-font-specification:ASTERA;fill:#ffffff;fill-opacity:1;stroke-width:0.1628986"
         id="path4072" />
      <path
         d="m 120.77422,191.55763 h 1.06902 q 0.97676,0.89403 2.50393,2.30667 h 0.006 v -2.29076 q 0.003,-0.0159 0.0159,-0.0159 h 1.06266 q 0.0159,0.003 0.0159,0.0159 v 3.38205 q 0,0.0159 -0.0159,0.0159 h -1.08493 l -2.49757,-2.29713 v 2.28122 q 0,0.0159 -0.0159,0.0159 h -1.05948 q -0.0159,0 -0.0159,-0.0159 v -3.38205 q 0.003,-0.0159 0.0159,-0.0159 z"
         style="font-style:normal;font-variant:normal;font-weight:normal;font-stretch:normal;font-family:ASTERA;-inkscape-font-specification:ASTERA;fill:#ffffff;fill-opacity:1;stroke-width:0.1628986"
         id="path4074" />
      <path
         d="m 126.83519,191.55763 h 3.61113 q 0.0159,0.003 0.0159,0.0159 v 0.77949 q 0,0.0159 -0.0159,0.0159 h -3.02571 q -0.38816,0 -0.54088,0.41043 -0.0159,0.0859 -0.0159,0.12408 v 0.69996 q 0,0.37543 0.37543,0.52814 0.0764,0.0318 0.18135,0.0318 h 1.94715 v -0.62678 q 0.003,-0.0159 0.0159,-0.0159 h 1.06266 q 0.0159,0.003 0.0159,0.0159 v 1.419 q 0,0.0159 -0.0159,0.0159 h -3.58886 q -0.49633,0 -0.86221,-0.37543 -0.22272,-0.26089 -0.22272,-0.55678 v -1.55581 q 0,-0.51861 0.59497,-0.81768 0.26089,-0.10817 0.46769,-0.10817 z"
         style="font-style:normal;font-variant:normal;font-weight:normal;font-stretch:normal;font-family:ASTERA;-inkscape-font-specification:ASTERA;fill:#ffffff;fill-opacity:1;stroke-width:0.1628986"
         id="path4076" />
    </g>
    <path
       style="opacity:1;fill:#ffffff;fill-opacity:1;stroke:none;stroke-width:0.32789573;stroke-linecap:butt;stroke-linejoin:miter;stroke-miterlimit:4;stroke-dasharray:none;stroke-opacity:1"
       d="m 135.16426,183.8416 c 0.42032,0 0.7587,0.33838 0.7587,0.75871 0,0.42032 -0.33838,0.7587 -0.7587,0.7587 -0.42033,0 -0.75871,-0.33838 -0.75871,-0.7587 0,-0.42033 0.33838,-0.75871 0.75871,-0.75871 z"
       id="rect1380" />
  </g>
</svg>
